<?xml version="1.0" encoding="UTF-8" standalone="no"?>
<!DOCTYPE svg PUBLIC "-//W3C//DTD SVG 1.1//EN"
 "http://www.w3.org/Graphics/SVG/1.1/DTD/svg11.dtd">
<!-- Generated by graphviz version 12.1.0 (0)
 -->
<!-- Pages: 1 -->
<svg width="777pt" height="511pt"
 viewBox="0.00 0.00 776.68 511.34" xmlns="http://www.w3.org/2000/svg" xmlns:xlink="http://www.w3.org/1999/xlink">
<g id="graph0" class="graph" transform="scale(1 1) rotate(0) translate(4 507.34)">
<polygon fill="white" stroke="none" points="-4,4 -4,-507.34 772.68,-507.34 772.68,4 -4,4"/>
<!-- 0 -->
<g id="node1" class="node">
<title>0</title>
<ellipse fill="none" stroke="black" cx="75.02" cy="-287.67" rx="75.02" ry="18"/>
<text text-anchor="middle" x="75.02" y="-282.24" font-family="Times,serif" font-size="14.00">Herr Mustermann</text>
</g>
<!-- 2 -->
<g id="node3" class="node">
<title>2</title>
<ellipse fill="none" stroke="black" cx="159.02" cy="-18" rx="76.51" ry="18"/>
<text text-anchor="middle" x="159.02" y="-12.57" font-family="Times,serif" font-size="14.00">Kind Mustermann</text>
</g>
<!-- 0&#45;&gt;2 -->
<g id="edge1" class="edge">
<title>0&#45;&gt;2</title>
<path fill="none" stroke="black" d="M80.4,-269.52C94.53,-224.49 132.79,-102.57 150.19,-47.12"/>
<polygon fill="black" stroke="black" points="153.46,-48.39 153.12,-37.8 146.78,-46.29 153.46,-48.39"/>
</g>
<!-- 1 -->
<g id="node2" class="node">
<title>1</title>
<ellipse fill="none" stroke="black" cx="244.02" cy="-287.67" rx="75.51" ry="18"/>
<text text-anchor="middle" x="244.02" y="-282.24" font-family="Times,serif" font-size="14.00">Frau Mustermann</text>
</g>
<!-- 1&#45;&gt;2 -->
<g id="edge2" class="edge">
<title>1&#45;&gt;2</title>
<path fill="none" stroke="black" d="M238.57,-269.52C224.27,-224.49 185.55,-102.57 167.95,-47.12"/>
<polygon fill="black" stroke="black" points="171.35,-46.27 164.98,-37.8 164.68,-48.39 171.35,-46.27"/>
</g>
<!-- 3 -->
<g id="node4" class="node">
<title>3</title>
<ellipse fill="none" stroke="black" cx="553.02" cy="-287.67" rx="215.67" ry="215.67"/>
<image xlink:href="003-pic.jpg" width="404px" height="404px" preserveAspectRatio="xMinYMin meet" x="351.016" y="-489.668"/>
<text text-anchor="middle" x="553.02" y="-282.24" font-family="Times,serif" font-size="14.00">3</text>
</g>
</g>
</svg>
